<?xml version="1.0" encoding="UTF-8" standalone="no"?>
<!-- Created with Inkscape (http://www.inkscape.org/) -->

<svg
   version="1.1"
   id="svg1"
   width="1254"
   height="1254"
   viewBox="0 0 1254 1254"
   xmlns:xlink="http://www.w3.org/1999/xlink"
   xmlns="http://www.w3.org/2000/svg"
   xmlns:svg="http://www.w3.org/2000/svg">
  <defs
     id="defs1">
    <linearGradient
       id="linearGradient9">
      <stop
         style="stop-color:#9530be;stop-opacity:1;"
         offset="0"
         id="stop9" />
      <stop
         style="stop-color:#000000;stop-opacity:0.56015778;"
         offset="1"
         id="stop10" />
    </linearGradient>
    <linearGradient
       xlink:href="#linearGradient9"
       id="linearGradient10"
       x1="705.66742"
       y1="-2.6814582"
       x2="700.61188"
       y2="1225.4091"
       gradientUnits="userSpaceOnUse" />
    <linearGradient
       xlink:href="#linearGradient9"
       id="linearGradient2"
       gradientUnits="userSpaceOnUse"
       x1="705.66742"
       y1="-2.6814582"
       x2="700.61188"
       y2="1225.4091" />
    <linearGradient
       xlink:href="#linearGradient9"
       id="linearGradient3"
       gradientUnits="userSpaceOnUse"
       x1="705.66742"
       y1="-2.6814582"
       x2="700.61188"
       y2="1225.4091" />
    <linearGradient
       xlink:href="#linearGradient9"
       id="linearGradient4"
       gradientUnits="userSpaceOnUse"
       x1="705.66742"
       y1="-2.6814582"
       x2="700.61188"
       y2="1225.4091" />
    <linearGradient
       xlink:href="#linearGradient9"
       id="linearGradient5"
       gradientUnits="userSpaceOnUse"
       x1="705.66742"
       y1="-2.6814582"
       x2="700.61188"
       y2="1225.4091" />
    <linearGradient
       xlink:href="#linearGradient9"
       id="linearGradient6"
       gradientUnits="userSpaceOnUse"
       x1="705.66742"
       y1="-2.6814582"
       x2="700.61188"
       y2="1225.4091" />
    <linearGradient
       xlink:href="#linearGradient9"
       id="linearGradient7"
       gradientUnits="userSpaceOnUse"
       x1="705.66742"
       y1="-2.6814582"
       x2="700.61188"
       y2="1225.4091" />
  </defs>
  <g
     id="g1"
     style="display:inline">
    <g
       id="g9"
       style="display:inline;stroke:url(#linearGradient10)">
      <path
         style="fill:#ffffff;stroke:url(#linearGradient2);stroke-width:2.18133"
         d="m 294.76422,816.30344 c -53.66359,-91.53554 -70.5007,-192.01263 -49.01688,-292.51297 22.52267,-105.35998 88.91042,-201.5937 180.70328,-261.9421 39.1887,-25.76425 89.06667,-46.19537 139.60532,-57.18541 20.21356,-4.3956 28.92543,-4.98066 74.16532,-4.98066 45.20429,0 53.93069,0.58508 73.85242,4.95151 58.2131,12.75912 114.0631,38.13742 158.22886,71.89936 19.08143,14.58655 56.46723,51.18403 71.81304,70.29879 18.89486,23.53546 49.34965,87.60932 69.46592,146.14932 18.544,53.96465 21.7335,131.6164 8.1534,198.50131 -4.7359,23.32519 -16.9153,64.30145 -18.609,62.60773 -0.6099,-0.60984 0.8818,-7.55398 3.3149,-15.43141 9.7274,-31.49343 13.8078,-59.87041 14.9389,-103.89098 0.8442,-32.8533 0.2707,-48.13146 -2.5194,-67.11678 -3.9184,-26.66327 -13.1321,-65.59273 -16.266,-68.72663 -1.1453,-1.14538 -8.7556,-0.80609 -18.4474,0.8224 -29.937,5.03031 -53.62017,-2.6593 -76.32144,-24.78059 -15.15686,-14.76964 -15.03444,-15.19127 7.41544,-25.5391 19.51216,-8.99372 40.4551,-9.89182 57.39707,-2.46135 5.86853,2.57385 11.13108,4.21868 11.69459,3.6552 1.53912,-1.53915 -18.14904,-36.78677 -31.70638,-56.7637 -56.6391,-83.4586 -143.21634,-141.60806 -242.60226,-162.9434 -19.69041,-4.22698 -29.48418,-4.92322 -69.80266,-4.96231 -40.68005,-0.0395 -49.89417,0.6079 -69.48974,4.88208 -51.07886,11.1413 -102.51566,33.65033 -144.2809,63.13814 -26.55748,18.75056 -73.13854,65.35937 -92.08626,92.14112 -86.37214,122.08313 -99.90431,282.45385 -35.31937,418.57257 12.81504,27.00889 13.29602,28.58366 8.73029,28.58366 -1.68558,0 -7.54056,-7.6346 -13.01106,-16.9658 z"
         id="path4" />
      <path
         style="fill:#ffffff;stroke:url(#linearGradient3);stroke-width:2.18133"
         d="m 1010.9655,447.01938 c -4.9843,-9.31336 -10.5353,-28.26649 -12.9563,-44.23814 -4.68975,-30.93843 5.1412,-60.28471 28.5941,-85.35592 11.2558,-12.0325 33.6259,-29.48935 37.7891,-29.48935 2.6867,0 9.8867,20.15202 13.4066,37.52325 9.942,49.06603 -11.8709,95.24369 -57.7797,122.31865 -6.4242,3.78877 -6.6294,3.77159 -9.0538,-0.75849 z"
         id="path5" />
      <path
         style="fill:#ffffff;stroke:url(#linearGradient4);stroke-width:2.18133"
         d="m 617.48043,522.23038 c -24.97171,-7.96786 -44.32765,-26.35247 -53.7603,-51.06243 -6.5589,-17.18183 -5.34869,-44.14505 2.76274,-61.553 15.30517,-32.8465 52.4462,-53.62004 84.87254,-47.47052 32.06542,6.08109 54.77469,25.81022 65.25405,56.69076 16.79693,49.49719 -20.53187,103.68223 -73.10463,106.11583 -9.72527,0.45019 -19.18688,-0.53895 -26.0244,-2.72064 z"
         id="path6" />
      <path
         style="fill:#ffffff;stroke:url(#linearGradient5);stroke-width:2.18133"
         d="m 460.49981,822.74852 c -6.61274,-10.69963 -7.57694,-79.96182 -1.54539,-111.01125 13.81032,-71.09332 46.3605,-117.72081 99.46685,-142.48432 21.48876,-10.02022 36.13521,-13.54388 57.61048,-13.85999 l 16.55485,-0.24369 -0.33437,26.29991 c -0.96692,76.055 -30.06318,146.40976 -80.7608,195.27967 -10.67856,10.29358 -26.53715,22.94644 -35.24132,28.11751 -24.51715,14.56535 -52.299,23.48648 -55.7503,17.90216 z"
         id="path7" />
      <path
         style="fill:#ffffff;stroke:url(#linearGradient6);stroke-width:2.18133"
         d="m 803.07152,823.30897 c -17.73214,-4.66559 -45.2639,-19.18587 -62.70338,-33.06984 -58.18207,-46.3201 -93.37056,-123.97276 -96.15255,-212.18586 l -0.72233,-22.904 17.97799,0.48095 c 62.85907,1.6816 117.42475,42.70539 142.97898,107.49504 13.67826,34.67956 20.33902,76.11372 18.37236,114.2877 -1.22748,23.826 -4.85797,46.32722 -7.72589,47.88386 -0.8027,0.43568 -6.21403,-0.45884 -12.02518,-1.98785 z"
         id="path8" />
      <path
         style="fill:#ffffff;stroke:url(#linearGradient7);stroke-width:2.18133"
         d="m 424.83773,1033.9362 c -31.73398,-8.3159 -57.90066,-25.2932 -75.95816,-49.2826 -15.04366,-19.98556 -19.28449,-32.81216 -19.40046,-58.6777 -0.0895,-19.95364 0.47544,-23.02213 6.62623,-35.992 18.42139,-38.84429 58.71912,-58.66708 114.09979,-56.12664 30.69179,1.40791 54.75239,7.89493 86.40281,23.29523 20.62359,10.03491 86.16266,51.57443 86.16266,54.61102 0,0.77782 -7.32453,6.52821 -16.27674,12.77864 l -16.27673,11.36441 -27.89526,-13.92115 c -52.22522,-26.06304 -85.75206,-36.36417 -118.35361,-36.36417 -31.12125,0 -49.29546,7.93123 -56.98792,24.86953 -5.38956,11.86748 -5.15453,19.79889 0.97597,32.93579 8.52153,18.26061 28.71951,33.19327 54.85431,40.55461 6.87732,1.93712 20.17416,2.96471 35.99199,2.7815 48.63054,-0.56329 72.6194,-10.95207 159.83038,-69.21731 33.31884,-22.26016 68.82324,-44.96656 78.89867,-50.45868 38.20419,-20.82512 83.54505,-33.786 118.27236,-33.80867 47.54049,-0.031 90.35799,22.43855 106.88172,56.08891 5.67037,11.54763 6.19416,14.6534 6.19416,36.72792 0,23.61758 -0.17431,24.46618 -8.47376,41.25328 -11.97639,24.22439 -30.28118,41.83548 -56.61212,54.46678 -25.74741,12.3514 -44.94166,16.4997 -76.34509,16.4997 -43.17292,0 -78.00264,-9.317 -123.601,-33.0633 -13.79694,-7.18503 -25.85652,-13.8122 -26.7991,-14.72704 -0.94255,-0.91484 7.90352,-8.23147 19.65793,-16.25917 l 21.37168,-14.59582 18.14557,7.86348 c 40.41668,17.51476 89.24818,23.62041 121.2446,15.15982 48.49361,-12.82281 73.0089,-55.77038 46.58272,-81.60686 -11.4184,-11.16359 -23.9107,-13.9123 -58.0723,-12.77774 -25.71495,0.85404 -32.03152,1.81981 -46.15245,7.0565 -25.72232,9.53901 -34.61226,14.60251 -93.79732,53.42481 -30.5932,20.06753 -62.94368,40.72927 -71.88996,45.91498 -35.8032,20.75334 -73.87553,35.62434 -105.74398,41.30364 -21.26412,3.7895 -65.36316,2.6961 -83.55759,-2.0717 z"
         id="path9" />
    </g>
  </g>
</svg>
