<?xml version="1.0" encoding="UTF-8" standalone="no"?>
<!-- Created with Inkscape (http://www.inkscape.org/) -->

<svg
   version="1.1"
   id="svg1"
   width="1254"
   height="1254"
   viewBox="0 0 1254 1254"
   sodipodi:docname="Logo_AchtsamkeitIn3Minuten.png"
   inkscape:export-filename="logo_foreground.png"
   inkscape:export-xdpi="96"
   inkscape:export-ydpi="96"
   xmlns:inkscape="http://www.inkscape.org/namespaces/inkscape"
   xmlns:sodipodi="http://sodipodi.sourceforge.net/DTD/sodipodi-0.dtd"
   xmlns="http://www.w3.org/2000/svg"
   xmlns:svg="http://www.w3.org/2000/svg">
  <defs
     id="defs1" />
  <sodipodi:namedview
     id="namedview1"
     pagecolor="#ffffff"
     bordercolor="#000000"
     borderopacity="0.25"
     inkscape:showpageshadow="2"
     inkscape:pageopacity="0.0"
     inkscape:pagecheckerboard="0"
     inkscape:deskcolor="#d1d1d1"
     inkscape:zoom="0.45843526"
     inkscape:cx="566.05594"
     inkscape:cy="575.87194"
     inkscape:window-width="1920"
     inkscape:window-height="1094"
     inkscape:window-x="-11"
     inkscape:window-y="-11"
     inkscape:window-maximized="1"
     inkscape:current-layer="g1"
     inkscape:export-bgcolor="#ffffff00">
    <inkscape:page
       x="0"
       y="0"
       width="1254"
       height="1254"
       id="page2"
       margin="0"
       bleed="0" />
  </sodipodi:namedview>
  <g
     inkscape:groupmode="layer"
     inkscape:label="Image"
     id="g1">
    <g
       id="logo_foreground"
       style="display:inline;fill:#ffffff">
      <path
         style="fill:#ffffff;stroke-width:2.18133"
         d="m 603.78798,519.43522 c -34.34328,-11.33154 -54.95248,-36.08693 -59.67397,-71.67925 -2.91547,-21.97789 10.49542,-54.51723 28.63833,-69.48625 16.07966,-13.26671 32.40193,-19.3144 52.19959,-19.34089 15.06974,-0.0202 19.4449,0.91621 32.06715,6.86298 50.42061,23.75484 64.29706,83.67864 29.59017,127.78165 -18.82527,23.92179 -54.72543,35.13197 -82.82127,25.86176 z"
         id="path2" />
      <path
         style="fill:#ffffff;stroke-width:2.18133"
         d="m 444.94132,816.77607 c -4.55485,-11.98016 -7.03515,-57.50073 -4.46864,-82.01227 11.202,-106.98526 71.97837,-177.2033 157.75792,-182.26574 l 21.268,-1.25518 v 14.01566 c 0,21.38151 -5.8819,63.88443 -11.97832,86.55598 -21.26398,79.07717 -73.94677,142.28156 -137.96514,165.51897 -17.87992,6.49006 -21.96959,6.39744 -24.61382,-0.55742 z"
         id="path3" />
      <path
         style="fill:#ffffff;stroke-width:2.18133"
         d="m 777.58219,817.08375 c -32.31814,-12.44843 -59.10004,-31.6502 -82.02628,-58.81023 -40.98187,-48.55 -61.9555,-105.75768 -66.47245,-181.31034 l -1.54053,-25.76752 20.51783,1.27666 c 87.93962,5.47175 148.29931,75.1246 159.32231,183.85205 2.5951,25.59726 0.15802,67.93227 -4.63659,80.54306 -2.62056,6.8926 -7.71786,6.93642 -25.16429,0.21632 z"
         id="path4" />
      <path
         style="fill:#ffffff;stroke-width:2.18133"
         d="m 992.54533,434.77887 c -14.35805,-38.37533 -14.16246,-63.747 0.72842,-94.49091 7.94605,-16.4055 29.30985,-39.20356 46.50205,-49.624 l 11.2773,-6.8353 5.6047,15.68699 c 17.2529,48.28915 9.98,88.06641 -22.3047,121.99005 -11.5074,12.09161 -29.9091,25.66758 -34.79145,25.66758 -1.30844,0 -4.46578,-5.57748 -7.01632,-12.39441 z"
         id="path5" />
      <path
         style="fill:#ffffff;stroke-width:2.18133"
         d="m 280.25851,814.18258 c -29.34944,-49.78854 -48.76335,-105.82088 -55.66655,-160.6645 -4.22036,-33.52938 -1.57175,-96.58439 5.3686,-127.80902 14.21866,-63.96984 38.88098,-118.17578 76.68361,-168.54489 69.8974,-93.13293 176.22386,-152.16365 289.67567,-160.82322 95.62271,-7.2987 189.29901,21.43052 266.31209,81.67424 21.60979,16.90432 64.95094,61.349 75.61678,77.5421 27.53041,41.79721 65.65869,139.19746 73.00879,186.50398 4.9587,31.91465 4.9638,91.93333 0.011,123.69195 -3.7871,24.28142 -16.9999,75.72228 -21.0798,82.06886 -2.68251,4.17287 -2.79533,4.7504 5.46573,-27.98216 2.87648,-11.39746 6.53527,-28.08466 8.13057,-37.08266 3.8391,-21.65329 3.8887,-102.63582 0.075,-123.24532 -5.83465,-31.53481 -14.07193,-62.51103 -16.91298,-63.60126 -1.60775,-0.61695 -9.6483,-0.0783 -17.86794,1.19705 -29.61207,4.59445 -55.03821,-3.77962 -76.43114,-25.17254 -11.24804,-11.24805 -11.6864,-12.09283 -8.24709,-15.89324 1.99781,-2.20755 9.71548,-6.77413 17.15038,-10.14793 17.97972,-8.15886 40.94107,-8.71905 56.93644,-1.38909 5.88412,2.69643 11.14377,4.45724 11.68808,3.91294 2.06476,-2.06477 -25.28405,-48.25003 -41.81568,-70.61616 -51.83113,-70.12388 -129.67148,-123.15863 -211.991,-144.43523 -35.94776,-9.29119 -57.29343,-11.4639 -102.00315,-10.38257 -33.15308,0.80182 -43.83764,1.93593 -65.76065,6.98018 -150.77545,34.69177 -262.88486,152.71899 -297.1821,312.86916 -5.47823,25.58047 -5.91179,31.39025 -5.96539,79.93735 -0.0516,46.69835 0.5003,55.06103 5.11017,77.43732 7.02387,34.09385 19.83752,72.44648 34.14906,102.21184 11.08996,23.06505 12.55702,28.66815 7.50619,28.66815 -1.09962,0 -6.48373,-7.6074 -11.96469,-16.90533 z"
         id="path6" />
      <path
         style="fill:#ffffff;stroke-width:2.18133"
         d="m 413.29282,1032.0381 c -41.77929,-10.2791 -74.91927,-35.70697 -91.32216,-70.0702 -6.35551,-13.31447 -6.76803,-15.70764 -6.76803,-39.264 0,-24.4172 0.19855,-25.4515 7.45444,-38.83347 12.95157,-23.88644 37.05884,-41.69549 66.99677,-49.49333 7.76074,-2.02142 22.43276,-3.28919 38.06604,-3.28919 33.95579,0 59.38262,6.39396 94.7094,23.8161 22.2922,10.99387 63.98886,36.86722 81.36123,50.48576 l 5.01461,3.93103 -11.55861,8.45147 c -23.81084,17.41014 -17.65529,17.47471 -53.73964,-0.56368 -66.15575,-33.07095 -117.08626,-43.05558 -148.65841,-29.14361 -24.70876,10.88769 -32.10081,29.54434 -21.07082,53.18025 19.58245,41.96279 86.11339,55.72106 151.92364,31.41707 23.15192,-8.5501 39.1306,-18.18231 117.79198,-71.00695 82.41308,-55.34407 127.10199,-72.29334 184.32265,-69.90848 31.34707,1.30649 47.67,6.12546 69.25715,20.44658 38.42346,25.49048 49.31303,68.90393 28.4753,113.52247 -8.07196,17.284 -32.07644,40.96248 -51.92446,51.21918 -28.67471,14.8181 -43.59263,18.1128 -81.79999,18.0661 -37.78485,-0.046 -56.70809,-3.6961 -91.46353,-17.6409 -23.05744,-9.2512 -59.31787,-29.19706 -57.73492,-31.75833 0.65414,-1.05844 10.10621,-7.92011 21.00461,-15.24817 l 19.81523,-13.32373 11.10798,4.83306 c 58.25762,25.3478 111.9752,28.99816 149.19321,10.13837 12.96574,-6.57024 28.17755,-21.1308 32.24427,-30.86382 4.17885,-10.00138 3.93255,-28.32572 -0.48116,-35.79751 -18.03321,-30.52781 -90.59233,-28.43611 -147.55283,4.25356 -9.86307,5.66042 -41.83404,26.14111 -71.04663,45.51265 -75.23756,49.89172 -120.55475,71.29892 -166.83479,78.81022 -20.8197,3.3791 -59.23292,2.4393 -76.78253,-1.8785 z"
         id="path7" />
    </g>
  </g>
</svg>
